<?xml version="1.0" standalone="no"?>
<!DOCTYPE svg PUBLIC "-//W3C//DTD SVG 20010904//EN"
 "http://www.w3.org/TR/2001/REC-SVG-20010904/DTD/svg10.dtd">
<svg version="1.0" xmlns="http://www.w3.org/2000/svg"
 width="521.000000pt" height="521.000000pt" viewBox="0 0 521.000000 521.000000"
 preserveAspectRatio="xMidYMid meet">
<metadata>
Created by potrace 1.11, written by Peter Selinger 2001-2013
</metadata>
<g transform="translate(0.000000,521.000000) scale(0.100000,-0.100000)"
fill="#000000" stroke="none">
<path d="M2260 4934 c-19 -2 -98 -9 -175 -15 -268 -20 -576 -64 -1048 -149
-182 -33 -222 -47 -230 -82 -15 -59 -28 -388 -22 -538 22 -568 133 -1059 345
-1545 23 -52 45 -95 49 -94 3 0 38 39 76 86 39 47 153 172 255 277 203 209
257 277 495 627 176 258 273 367 385 434 37 22 120 92 195 165 173 168 240
199 315 148 77 -53 95 -127 70 -298 l-13 -87 45 -55 c25 -31 59 -85 76 -121
35 -74 43 -81 191 -169 121 -72 161 -116 168 -181 7 -61 -10 -108 -59 -157
-62 -65 -108 -80 -271 -92 -83 -5 -152 -15 -168 -24 -60 -30 -137 -147 -255
-383 -74 -149 -112 -212 -191 -314 -207 -271 -206 -269 -207 -452 -1 -134 10
-187 91 -451 l46 -151 48 -11 c80 -19 238 -81 338 -133 l93 -49 42 32 c193
150 449 397 600 578 493 593 787 1314 872 2137 10 101 16 248 16 408 0 280
-12 423 -38 442 -46 34 -736 154 -1139 198 -109 13 -262 18 -555 20 -223 2
-421 1 -440 -1z"/>
<path d="M2753 4082 c-37 -33 -102 -94 -143 -136 -41 -42 -103 -93 -139 -113
-105 -62 -182 -149 -356 -403 -220 -323 -318 -451 -414 -545 -131 -128 -335
-353 -427 -471 -297 -381 -426 -754 -385 -1111 30 -256 120 -443 293 -608 138
-133 264 -204 489 -279 285 -95 489 -136 716 -143 190 -6 277 4 441 53 187 57
338 50 630 -27 63 -17 116 -29 118 -26 7 7 -59 57 -173 131 -131 85 -132 93
-17 104 l65 7 -93 92 c-269 267 -607 479 -898 562 l-95 27 -58 155 c-112 296
-154 522 -128 688 17 107 71 213 195 381 84 114 126 182 193 318 94 192 178
326 244 389 68 66 114 81 277 92 150 11 163 14 200 54 43 46 29 65 -102 143
-147 88 -198 134 -220 200 -19 57 -72 127 -122 163 -26 18 -34 30 -30 46 33
134 44 304 19 312 -6 2 -42 -23 -80 -55z m99 -643 c67 -28 160 -62 207 -76 47
-13 97 -32 111 -41 l25 -16 -30 -12 c-17 -7 -68 -13 -115 -14 -247 -2 -393
-95 -455 -290 -61 -192 -227 -469 -390 -650 -65 -72 -103 -146 -138 -270 -14
-46 -30 -86 -36 -88 -19 -6 -41 64 -41 131 0 142 58 290 194 491 109 162 149
245 226 470 65 189 89 245 139 314 38 52 114 102 154 102 16 0 83 -23 149 -51z
m-822 -1836 c26 -57 114 -314 124 -360 l8 -33 -86 0 -85 0 -5 43 c-3 23 -8
102 -11 174 -10 213 10 277 55 176z m525 -688 c94 -26 301 -138 420 -228 60
-45 110 -87 112 -93 2 -7 -29 -13 -90 -17 -71 -5 -128 -17 -237 -52 -171 -54
-277 -75 -374 -75 -82 0 -242 23 -331 46 -83 23 -195 77 -225 110 l-25 27 30
-7 c104 -21 194 -19 230 8 15 11 9 20 -65 93 -85 84 -95 109 -37 92 78 -22
367 -1 367 27 0 8 -19 26 -42 41 -24 15 -45 29 -48 31 -2 2 2 8 10 13 21 15
233 3 305 -16z"/>
</g>
</svg>
